<?xml version="1.0" encoding="utf-8"?><svg xmlns="http://www.w3.org/2000/svg" xmlns:xlink="http://www.w3.org/1999/xlink">
<symbol viewBox="0 0 11 14" id="icon-arrow" xmlns="http://www.w3.org/2000/svg"><path fill="none" stroke="#FFF" stroke-width="3" d="M2 1l6 6-6 6"/></symbol>
<symbol viewBox="0 0 46 56" id="icon-location" xmlns="http://www.w3.org/2000/svg"><path fill-rule="evenodd" d="M39.263 7.673c8.897 8.812 8.966 23.168.153 32.065l-.153.153L23 56 6.737 39.89C-2.16 31.079-2.23 16.723 6.584 7.826l.153-.152c9.007-8.922 23.52-8.922 32.526 0zM23 14.435c-5.211 0-9.436 4.185-9.436 9.347S17.79 33.128 23 33.128s9.436-4.184 9.436-9.346S28.21 14.435 23 14.435z"/></symbol>
<symbol style="position:absolute;width:0;height:0" overflow="hidden" viewBox="0 0 0 0" id="icons" xmlns="http://www.w3.org/2000/svg"><defs><symbol id="cicon-alert-circle" viewBox="0 0 24 24"><path d="M23 12c0-3.037-1.232-5.789-3.222-7.778S15.037 1 12 1 6.211 2.232 4.222 4.222 1 8.963 1 12s1.232 5.789 3.222 7.778S8.963 23 12 23s5.789-1.232 7.778-3.222S23 15.037 23 12zm-2 0c0 2.486-1.006 4.734-2.636 6.364S14.486 21 12 21s-4.734-1.006-6.364-2.636S3 14.486 3 12s1.006-4.734 2.636-6.364S9.514 3 12 3s4.734 1.006 6.364 2.636S21 9.514 21 12zM11 8v4a1 1 0 002 0V8a1 1 0 00-2 0zm1 9a1 1 0 100-2 1 1 0 000 2z"/></symbol>
<symbol id="cicon-alert-triangle" viewBox="0 0 24 24"><path d="M11.148 4.374a.973.973 0 01.334-.332c.236-.143.506-.178.756-.116s.474.216.614.448l8.466 14.133c.07.12.119.268.128.434-.015.368-.119.591-.283.759a.988.988 0 01-.693.301L3.533 20a.997.997 0 01-.855-1.486zM9.432 3.346l-8.47 14.14c-.422.731-.506 1.55-.308 2.29s.68 1.408 1.398 1.822c.464.268.976.4 1.475.402H20.47a3 3 0 002.572-4.507L14.568 3.346a2.995 2.995 0 00-4.123-1.014c-.429.26-.775.615-1.012 1.014zM11 9v4a1 1 0 002 0V9a1 1 0 00-2 0zm1 9a1 1 0 100-2 1 1 0 000 2z"/></symbol>
<symbol id="cicon-loader" viewBox="0 0 24 24"><path d="M11 2v4a1 1 0 002 0V2a1 1 0 00-2 0zm0 16v4a1 1 0 002 0v-4a1 1 0 00-2 0zM4.223 5.637l2.83 2.83a.999.999 0 101.414-1.414l-2.83-2.83a.999.999 0 10-1.414 1.414zm11.31 11.31l2.83 2.83a.999.999 0 101.414-1.414l-2.83-2.83a.999.999 0 10-1.414 1.414zM2 13h4a1 1 0 000-2H2a1 1 0 000 2zm16 0h4a1 1 0 000-2h-4a1 1 0 000 2zM5.637 19.777l2.83-2.83a.999.999 0 10-1.414-1.414l-2.83 2.83a.999.999 0 101.414 1.414zm11.31-11.31l2.83-2.83a.999.999 0 10-1.414-1.414l-2.83 2.83a.999.999 0 101.414 1.414z"/></symbol></defs></symbol></svg>